<mxfile host="Electron" modified="2023-09-18T16:30:08.932Z" agent="Mozilla/5.0 (Windows NT 10.0; Win64; x64) AppleWebKit/537.36 (KHTML, like Gecko) draw.io/21.6.8 Chrome/114.0.5735.289 Electron/25.5.0 Safari/537.36" etag="_Ayl6wW1lYdPMYNicQyw" version="21.6.8" type="device">
  <diagram name="Page-1" id="OC2ZymoAATeYU84KX-TM">
    <mxGraphModel dx="576" dy="341" grid="1" gridSize="10" guides="1" tooltips="1" connect="1" arrows="1" fold="1" page="1" pageScale="1" pageWidth="850" pageHeight="1100" math="0" shadow="0">
      <root>
        <mxCell id="0" />
        <mxCell id="1" parent="0" />
        <mxCell id="WfsGlT8gSYfF-yetdhoY-1" value="S" style="rounded=0;whiteSpace=wrap;html=1;fontFamily=Courier New;" parent="1" vertex="1">
          <mxGeometry x="110" y="330" width="20" height="20" as="geometry" />
        </mxCell>
        <mxCell id="WfsGlT8gSYfF-yetdhoY-9" value="0" style="rounded=0;whiteSpace=wrap;html=1;fontFamily=Courier New;" parent="1" vertex="1">
          <mxGeometry x="150" y="330" width="20" height="20" as="geometry" />
        </mxCell>
        <mxCell id="WfsGlT8gSYfF-yetdhoY-10" value="F" style="rounded=0;whiteSpace=wrap;html=1;fontFamily=Courier New;" parent="1" vertex="1">
          <mxGeometry x="170" y="330" width="20" height="20" as="geometry" />
        </mxCell>
        <mxCell id="WfsGlT8gSYfF-yetdhoY-11" value="0" style="rounded=0;whiteSpace=wrap;html=1;fontFamily=Courier New;" parent="1" vertex="1">
          <mxGeometry x="190" y="330" width="20" height="20" as="geometry" />
        </mxCell>
        <mxCell id="WfsGlT8gSYfF-yetdhoY-12" value="0" style="rounded=0;whiteSpace=wrap;html=1;fontFamily=Courier New;" parent="1" vertex="1">
          <mxGeometry x="210" y="330" width="20" height="20" as="geometry" />
        </mxCell>
        <mxCell id="WfsGlT8gSYfF-yetdhoY-13" value="0" style="rounded=0;whiteSpace=wrap;html=1;fontFamily=Courier New;" parent="1" vertex="1">
          <mxGeometry x="230" y="330" width="20" height="20" as="geometry" />
        </mxCell>
        <mxCell id="WfsGlT8gSYfF-yetdhoY-14" value="0" style="rounded=0;whiteSpace=wrap;html=1;fontFamily=Courier New;" parent="1" vertex="1">
          <mxGeometry x="250" y="330" width="20" height="20" as="geometry" />
        </mxCell>
        <mxCell id="WfsGlT8gSYfF-yetdhoY-15" value="6" style="rounded=0;whiteSpace=wrap;html=1;fontFamily=Courier New;" parent="1" vertex="1">
          <mxGeometry x="270" y="330" width="20" height="20" as="geometry" />
        </mxCell>
        <mxCell id="WfsGlT8gSYfF-yetdhoY-16" value="8" style="rounded=0;whiteSpace=wrap;html=1;fontFamily=Courier New;" parent="1" vertex="1">
          <mxGeometry x="290" y="330" width="20" height="20" as="geometry" />
        </mxCell>
        <mxCell id="WfsGlT8gSYfF-yetdhoY-17" value="6" style="rounded=0;whiteSpace=wrap;html=1;fontFamily=Courier New;" parent="1" vertex="1">
          <mxGeometry x="310" y="330" width="20" height="20" as="geometry" />
        </mxCell>
        <mxCell id="WfsGlT8gSYfF-yetdhoY-18" value="5" style="rounded=0;whiteSpace=wrap;html=1;fontFamily=Courier New;" parent="1" vertex="1">
          <mxGeometry x="330" y="330" width="20" height="20" as="geometry" />
        </mxCell>
        <mxCell id="WfsGlT8gSYfF-yetdhoY-19" value="6" style="rounded=0;whiteSpace=wrap;html=1;fontFamily=Courier New;" parent="1" vertex="1">
          <mxGeometry x="350" y="330" width="20" height="20" as="geometry" />
        </mxCell>
        <mxCell id="WfsGlT8gSYfF-yetdhoY-20" value="C" style="rounded=0;whiteSpace=wrap;html=1;fontFamily=Courier New;" parent="1" vertex="1">
          <mxGeometry x="370" y="330" width="20" height="20" as="geometry" />
        </mxCell>
        <mxCell id="WfsGlT8gSYfF-yetdhoY-24" value="0" style="rounded=0;whiteSpace=wrap;html=1;fontFamily=Courier New;" parent="1" vertex="1">
          <mxGeometry x="425" y="330" width="20" height="20" as="geometry" />
        </mxCell>
        <mxCell id="WfsGlT8gSYfF-yetdhoY-25" value="2" style="rounded=0;whiteSpace=wrap;html=1;fontFamily=Courier New;" parent="1" vertex="1">
          <mxGeometry x="445" y="330" width="20" height="20" as="geometry" />
        </mxCell>
        <mxCell id="WfsGlT8gSYfF-yetdhoY-26" value="0" style="rounded=0;whiteSpace=wrap;html=1;fontFamily=Courier New;" parent="1" vertex="1">
          <mxGeometry x="465" y="330" width="20" height="20" as="geometry" />
        </mxCell>
        <mxCell id="WfsGlT8gSYfF-yetdhoY-27" value="2" style="rounded=0;whiteSpace=wrap;html=1;fontFamily=Courier New;" parent="1" vertex="1">
          <mxGeometry x="485" y="330" width="20" height="20" as="geometry" />
        </mxCell>
        <mxCell id="WfsGlT8gSYfF-yetdhoY-28" value="0" style="rounded=0;whiteSpace=wrap;html=1;fontFamily=Courier New;" parent="1" vertex="1">
          <mxGeometry x="505" y="330" width="20" height="20" as="geometry" />
        </mxCell>
        <mxCell id="WfsGlT8gSYfF-yetdhoY-29" value="3" style="rounded=0;whiteSpace=wrap;html=1;fontFamily=Courier New;" parent="1" vertex="1">
          <mxGeometry x="525" y="330" width="20" height="20" as="geometry" />
        </mxCell>
        <mxCell id="WfsGlT8gSYfF-yetdhoY-30" value="C" style="rounded=0;whiteSpace=wrap;html=1;fontFamily=Courier New;" parent="1" vertex="1">
          <mxGeometry x="545" y="330" width="20" height="20" as="geometry" />
        </mxCell>
        <mxCell id="WfsGlT8gSYfF-yetdhoY-31" value="" style="endArrow=none;dashed=1;html=1;dashPattern=1 3;strokeWidth=2;rounded=0;exitX=1;exitY=0.5;exitDx=0;exitDy=0;fontFamily=Courier New;entryX=0;entryY=0.5;entryDx=0;entryDy=0;" parent="1" source="WfsGlT8gSYfF-yetdhoY-20" target="WfsGlT8gSYfF-yetdhoY-24" edge="1">
          <mxGeometry width="50" height="50" relative="1" as="geometry">
            <mxPoint x="340" y="450" as="sourcePoint" />
            <mxPoint x="420" y="340" as="targetPoint" />
          </mxGeometry>
        </mxCell>
        <mxCell id="WfsGlT8gSYfF-yetdhoY-32" value="Record type" style="text;html=1;strokeColor=none;fillColor=none;align=center;verticalAlign=middle;whiteSpace=wrap;rounded=0;fontFamily=Computer Modern;" parent="1" vertex="1">
          <mxGeometry x="100" y="354" width="60" height="30" as="geometry" />
        </mxCell>
        <mxCell id="WfsGlT8gSYfF-yetdhoY-33" value="Byte &lt;br&gt;count" style="text;html=1;strokeColor=none;fillColor=none;align=center;verticalAlign=middle;whiteSpace=wrap;rounded=0;fontFamily=Computer Modern;" parent="1" vertex="1">
          <mxGeometry x="140" y="354" width="60" height="30" as="geometry" />
        </mxCell>
        <mxCell id="WfsGlT8gSYfF-yetdhoY-35" value="Destination&lt;br&gt;address" style="text;html=1;strokeColor=none;fillColor=none;align=center;verticalAlign=middle;whiteSpace=wrap;rounded=0;fontFamily=Computer Modern;" parent="1" vertex="1">
          <mxGeometry x="200" y="354" width="60" height="30" as="geometry" />
        </mxCell>
        <mxCell id="WfsGlT8gSYfF-yetdhoY-36" value="Data" style="text;html=1;strokeColor=none;fillColor=none;align=center;verticalAlign=middle;whiteSpace=wrap;rounded=0;fontFamily=Computer Modern;" parent="1" vertex="1">
          <mxGeometry x="374" y="354" width="60" height="30" as="geometry" />
        </mxCell>
        <mxCell id="WfsGlT8gSYfF-yetdhoY-37" value="Check&lt;br&gt;sum" style="text;html=1;strokeColor=none;fillColor=none;align=center;verticalAlign=middle;whiteSpace=wrap;rounded=0;fontFamily=Computer Modern;" parent="1" vertex="1">
          <mxGeometry x="520" y="354" width="50" height="30" as="geometry" />
        </mxCell>
        <mxCell id="WfsGlT8gSYfF-yetdhoY-8" value="0" style="rounded=0;whiteSpace=wrap;html=1;fontFamily=Courier New;" parent="1" vertex="1">
          <mxGeometry x="130" y="330" width="20" height="20" as="geometry" />
        </mxCell>
        <mxCell id="UGzvBJql1PJJsxFIzupT-1" value="" style="endArrow=none;html=1;rounded=0;entryX=0;entryY=1;entryDx=0;entryDy=0;" edge="1" parent="1" target="WfsGlT8gSYfF-yetdhoY-1">
          <mxGeometry width="50" height="50" relative="1" as="geometry">
            <mxPoint x="110" y="400" as="sourcePoint" />
            <mxPoint x="120" y="350" as="targetPoint" />
          </mxGeometry>
        </mxCell>
        <mxCell id="UGzvBJql1PJJsxFIzupT-2" value="" style="endArrow=none;html=1;rounded=0;entryX=0;entryY=1;entryDx=0;entryDy=0;" edge="1" parent="1">
          <mxGeometry width="50" height="50" relative="1" as="geometry">
            <mxPoint x="150" y="400" as="sourcePoint" />
            <mxPoint x="150" y="350" as="targetPoint" />
          </mxGeometry>
        </mxCell>
        <mxCell id="UGzvBJql1PJJsxFIzupT-3" value="" style="endArrow=none;html=1;rounded=0;entryX=0;entryY=1;entryDx=0;entryDy=0;" edge="1" parent="1">
          <mxGeometry width="50" height="50" relative="1" as="geometry">
            <mxPoint x="190" y="400" as="sourcePoint" />
            <mxPoint x="189.6" y="350" as="targetPoint" />
          </mxGeometry>
        </mxCell>
        <mxCell id="UGzvBJql1PJJsxFIzupT-4" value="" style="endArrow=none;html=1;rounded=0;entryX=0;entryY=1;entryDx=0;entryDy=0;" edge="1" parent="1">
          <mxGeometry width="50" height="50" relative="1" as="geometry">
            <mxPoint x="270" y="400" as="sourcePoint" />
            <mxPoint x="270" y="350" as="targetPoint" />
          </mxGeometry>
        </mxCell>
        <mxCell id="UGzvBJql1PJJsxFIzupT-5" value="" style="endArrow=none;html=1;rounded=0;entryX=0;entryY=1;entryDx=0;entryDy=0;" edge="1" parent="1" target="WfsGlT8gSYfF-yetdhoY-29">
          <mxGeometry width="50" height="50" relative="1" as="geometry">
            <mxPoint x="525" y="400" as="sourcePoint" />
            <mxPoint x="534" y="350" as="targetPoint" />
          </mxGeometry>
        </mxCell>
        <mxCell id="UGzvBJql1PJJsxFIzupT-6" value="" style="endArrow=classic;startArrow=classic;html=1;rounded=0;" edge="1" parent="1">
          <mxGeometry width="50" height="50" relative="1" as="geometry">
            <mxPoint x="110" y="390" as="sourcePoint" />
            <mxPoint x="150" y="390" as="targetPoint" />
          </mxGeometry>
        </mxCell>
        <mxCell id="UGzvBJql1PJJsxFIzupT-8" value="" style="endArrow=classic;startArrow=classic;html=1;rounded=0;" edge="1" parent="1">
          <mxGeometry width="50" height="50" relative="1" as="geometry">
            <mxPoint x="150" y="390" as="sourcePoint" />
            <mxPoint x="190" y="390" as="targetPoint" />
          </mxGeometry>
        </mxCell>
        <mxCell id="UGzvBJql1PJJsxFIzupT-9" value="" style="endArrow=classic;startArrow=classic;html=1;rounded=0;" edge="1" parent="1">
          <mxGeometry width="50" height="50" relative="1" as="geometry">
            <mxPoint x="190" y="390" as="sourcePoint" />
            <mxPoint x="270" y="390" as="targetPoint" />
          </mxGeometry>
        </mxCell>
        <mxCell id="UGzvBJql1PJJsxFIzupT-10" value="" style="endArrow=classic;startArrow=classic;html=1;rounded=0;" edge="1" parent="1">
          <mxGeometry width="50" height="50" relative="1" as="geometry">
            <mxPoint x="270" y="390" as="sourcePoint" />
            <mxPoint x="525" y="390" as="targetPoint" />
          </mxGeometry>
        </mxCell>
        <mxCell id="UGzvBJql1PJJsxFIzupT-11" value="" style="endArrow=none;html=1;rounded=0;entryX=1;entryY=1;entryDx=0;entryDy=0;" edge="1" parent="1" target="WfsGlT8gSYfF-yetdhoY-30">
          <mxGeometry width="50" height="50" relative="1" as="geometry">
            <mxPoint x="565" y="400" as="sourcePoint" />
            <mxPoint x="535" y="360" as="targetPoint" />
          </mxGeometry>
        </mxCell>
        <mxCell id="UGzvBJql1PJJsxFIzupT-12" value="" style="endArrow=classic;startArrow=classic;html=1;rounded=0;" edge="1" parent="1">
          <mxGeometry width="50" height="50" relative="1" as="geometry">
            <mxPoint x="525" y="390" as="sourcePoint" />
            <mxPoint x="565" y="390" as="targetPoint" />
          </mxGeometry>
        </mxCell>
      </root>
    </mxGraphModel>
  </diagram>
</mxfile>
